<mxfile host="65bd71144e">
    <diagram id="ZUNKfcrDwXJdTxft1Hdw" name="Page-1">
        <mxGraphModel dx="1842" dy="823" grid="1" gridSize="10" guides="1" tooltips="1" connect="1" arrows="1" fold="1" page="1" pageScale="1" pageWidth="1100" pageHeight="850" math="0" shadow="0">
            <root>
                <mxCell id="0"/>
                <mxCell id="1" parent="0"/>
                <mxCell id="3" value="Game flow" style="points=[[0,0],[0.25,0],[0.5,0],[0.75,0],[1,0],[1,0.25],[1,0.5],[1,0.75],[1,1],[0.75,1],[0.5,1],[0.25,1],[0,1],[0,0.75],[0,0.5],[0,0.25]];outlineConnect=0;gradientColor=none;html=1;whiteSpace=wrap;fontSize=12;fontStyle=0;container=1;pointerEvents=0;collapsible=0;recursiveResize=0;shape=mxgraph.aws4.group;grIcon=mxgraph.aws4.group_security_group;grStroke=0;strokeColor=#00A4A6;fillColor=#E6F6F7;verticalAlign=top;align=left;spacingLeft=30;fontColor=#147EBA;dashed=0;" vertex="1" parent="1">
                    <mxGeometry width="1290" height="850" as="geometry"/>
                </mxCell>
                <mxCell id="6" value="Server" style="rounded=0;whiteSpace=wrap;html=1;" vertex="1" parent="3">
                    <mxGeometry x="50" y="60" width="180" height="40" as="geometry"/>
                </mxCell>
                <mxCell id="7" value="Client" style="rounded=0;whiteSpace=wrap;html=1;" vertex="1" parent="3">
                    <mxGeometry x="550" y="60" width="180" height="40" as="geometry"/>
                </mxCell>
                <mxCell id="11" value="Client" style="rounded=0;whiteSpace=wrap;html=1;" vertex="1" parent="3">
                    <mxGeometry x="1050" y="60" width="180" height="40" as="geometry"/>
                </mxCell>
                <mxCell id="13" value="" style="line;strokeWidth=4;direction=south;html=1;perimeter=backbonePerimeter;points=[];outlineConnect=0;" vertex="1" parent="3">
                    <mxGeometry x="135" y="100" width="10" height="590" as="geometry"/>
                </mxCell>
                <mxCell id="14" value="" style="line;strokeWidth=4;direction=south;html=1;perimeter=backbonePerimeter;points=[];outlineConnect=0;" vertex="1" parent="3">
                    <mxGeometry x="635" y="100" width="10" height="590" as="geometry"/>
                </mxCell>
                <mxCell id="15" value="" style="line;strokeWidth=4;direction=south;html=1;perimeter=backbonePerimeter;points=[];outlineConnect=0;" vertex="1" parent="3">
                    <mxGeometry x="1140" y="100" width="10" height="590" as="geometry"/>
                </mxCell>
            </root>
        </mxGraphModel>
    </diagram>
</mxfile>